<mxfile host="Electron" modified="2024-06-12T17:42:18.957Z" agent="Mozilla/5.0 (Windows NT 10.0; Win64; x64) AppleWebKit/537.36 (KHTML, like Gecko) draw.io/24.5.3 Chrome/124.0.6367.207 Electron/30.0.6 Safari/537.36" etag="f1UC-mMr_AkSVA4fI02Z" version="24.5.3" type="device">
  <diagram id="ugVPBsHxuBbXoPAp8RVz" name="PÃ¡gina-1">
    <mxGraphModel dx="1434" dy="836" grid="1" gridSize="10" guides="1" tooltips="1" connect="1" arrows="1" fold="1" page="1" pageScale="1" pageWidth="1169" pageHeight="827" math="0" shadow="0">
      <root>
        <mxCell id="0" />
        <mxCell id="1" parent="0" />
        <mxCell id="km4sKIVRrVkiaHiUSIHk-5" value="User" style="swimlane;fontStyle=0;childLayout=stackLayout;horizontal=1;startSize=26;fillColor=#d5e8d4;horizontalStack=0;resizeParent=1;resizeParentMax=0;resizeLast=0;collapsible=1;marginBottom=0;swimlaneFillColor=#ffffff;align=center;fontSize=14;rounded=0;strokeColor=#82b366;fontColor=#4D4D4D;" parent="1" vertex="1">
          <mxGeometry x="160" y="304" width="160" height="104" as="geometry">
            <mxRectangle x="260" y="110" width="60" height="26" as="alternateBounds" />
          </mxGeometry>
        </mxCell>
        <mxCell id="km4sKIVRrVkiaHiUSIHk-6" value="- Atributos" style="text;strokeColor=#d6b656;fillColor=#fff2cc;spacingLeft=4;spacingRight=4;overflow=hidden;rotatable=0;points=[[0,0.5],[1,0.5]];portConstraint=eastwest;fontSize=12;rounded=1;fontColor=#4D4D4D;" parent="km4sKIVRrVkiaHiUSIHk-5" vertex="1">
          <mxGeometry y="26" width="160" height="26" as="geometry" />
        </mxCell>
        <mxCell id="km4sKIVRrVkiaHiUSIHk-7" value="+ getters()" style="text;strokeColor=none;fillColor=none;spacingLeft=4;spacingRight=4;overflow=hidden;rotatable=0;points=[[0,0.5],[1,0.5]];portConstraint=eastwest;fontSize=12;absoluteArcSize=0;fontColor=#4D4D4D;" parent="km4sKIVRrVkiaHiUSIHk-5" vertex="1">
          <mxGeometry y="52" width="160" height="26" as="geometry" />
        </mxCell>
        <mxCell id="km4sKIVRrVkiaHiUSIHk-8" value="+ setters()" style="text;strokeColor=none;fillColor=none;spacingLeft=4;spacingRight=4;overflow=hidden;rotatable=0;points=[[0,0.5],[1,0.5]];portConstraint=eastwest;fontSize=12;fontColor=#4D4D4D;" parent="km4sKIVRrVkiaHiUSIHk-5" vertex="1">
          <mxGeometry y="78" width="160" height="26" as="geometry" />
        </mxCell>
        <mxCell id="km4sKIVRrVkiaHiUSIHk-56" style="edgeStyle=none;rounded=0;orthogonalLoop=1;jettySize=auto;html=1;exitX=0.5;exitY=0;exitDx=0;exitDy=0;endArrow=diamond;endFill=1;endSize=20;strokeColor=#000000;" parent="1" source="km4sKIVRrVkiaHiUSIHk-9" target="km4sKIVRrVkiaHiUSIHk-5" edge="1">
          <mxGeometry relative="1" as="geometry" />
        </mxCell>
        <mxCell id="km4sKIVRrVkiaHiUSIHk-9" value="Credentials" style="swimlane;fontStyle=0;childLayout=stackLayout;horizontal=1;startSize=26;fillColor=#d5e8d4;horizontalStack=0;resizeParent=1;resizeParentMax=0;resizeLast=0;collapsible=1;marginBottom=0;swimlaneFillColor=#ffffff;align=center;fontSize=14;rounded=0;strokeColor=#82b366;fontColor=#4D4D4D;" parent="1" vertex="1">
          <mxGeometry x="160" y="520" width="160" height="104" as="geometry">
            <mxRectangle x="260" y="110" width="60" height="26" as="alternateBounds" />
          </mxGeometry>
        </mxCell>
        <mxCell id="km4sKIVRrVkiaHiUSIHk-10" value="- Atributos" style="text;strokeColor=#d6b656;fillColor=#fff2cc;spacingLeft=4;spacingRight=4;overflow=hidden;rotatable=0;points=[[0,0.5],[1,0.5]];portConstraint=eastwest;fontSize=12;rounded=1;fontColor=#4D4D4D;" parent="km4sKIVRrVkiaHiUSIHk-9" vertex="1">
          <mxGeometry y="26" width="160" height="26" as="geometry" />
        </mxCell>
        <mxCell id="km4sKIVRrVkiaHiUSIHk-11" value="+ getters()" style="text;strokeColor=none;fillColor=none;spacingLeft=4;spacingRight=4;overflow=hidden;rotatable=0;points=[[0,0.5],[1,0.5]];portConstraint=eastwest;fontSize=12;absoluteArcSize=0;fontColor=#4D4D4D;" parent="km4sKIVRrVkiaHiUSIHk-9" vertex="1">
          <mxGeometry y="52" width="160" height="26" as="geometry" />
        </mxCell>
        <mxCell id="km4sKIVRrVkiaHiUSIHk-12" value="+ setters()" style="text;strokeColor=none;fillColor=none;spacingLeft=4;spacingRight=4;overflow=hidden;rotatable=0;points=[[0,0.5],[1,0.5]];portConstraint=eastwest;fontSize=12;fontColor=#4D4D4D;" parent="km4sKIVRrVkiaHiUSIHk-9" vertex="1">
          <mxGeometry y="78" width="160" height="26" as="geometry" />
        </mxCell>
        <mxCell id="km4sKIVRrVkiaHiUSIHk-55" style="edgeStyle=none;rounded=0;orthogonalLoop=1;jettySize=auto;html=1;exitX=0;exitY=0;exitDx=0;exitDy=0;endArrow=diamond;endFill=1;endSize=20;strokeColor=#000000;" parent="1" source="km4sKIVRrVkiaHiUSIHk-13" target="km4sKIVRrVkiaHiUSIHk-5" edge="1">
          <mxGeometry relative="1" as="geometry" />
        </mxCell>
        <mxCell id="km4sKIVRrVkiaHiUSIHk-13" value="Client" style="swimlane;fontStyle=0;childLayout=stackLayout;horizontal=1;startSize=26;fillColor=#d5e8d4;horizontalStack=0;resizeParent=1;resizeParentMax=0;resizeLast=0;collapsible=1;marginBottom=0;swimlaneFillColor=#ffffff;align=center;fontSize=14;rounded=0;strokeColor=#82b366;fontColor=#4D4D4D;" parent="1" vertex="1">
          <mxGeometry x="520" y="520" width="160" height="104" as="geometry">
            <mxRectangle x="260" y="110" width="60" height="26" as="alternateBounds" />
          </mxGeometry>
        </mxCell>
        <mxCell id="km4sKIVRrVkiaHiUSIHk-14" value="- Atributos" style="text;strokeColor=#d6b656;fillColor=#fff2cc;spacingLeft=4;spacingRight=4;overflow=hidden;rotatable=0;points=[[0,0.5],[1,0.5]];portConstraint=eastwest;fontSize=12;rounded=1;fontColor=#4D4D4D;" parent="km4sKIVRrVkiaHiUSIHk-13" vertex="1">
          <mxGeometry y="26" width="160" height="26" as="geometry" />
        </mxCell>
        <mxCell id="km4sKIVRrVkiaHiUSIHk-15" value="+ getters()" style="text;strokeColor=none;fillColor=none;spacingLeft=4;spacingRight=4;overflow=hidden;rotatable=0;points=[[0,0.5],[1,0.5]];portConstraint=eastwest;fontSize=12;absoluteArcSize=0;fontColor=#4D4D4D;" parent="km4sKIVRrVkiaHiUSIHk-13" vertex="1">
          <mxGeometry y="52" width="160" height="26" as="geometry" />
        </mxCell>
        <mxCell id="km4sKIVRrVkiaHiUSIHk-16" value="+ setters()" style="text;strokeColor=none;fillColor=none;spacingLeft=4;spacingRight=4;overflow=hidden;rotatable=0;points=[[0,0.5],[1,0.5]];portConstraint=eastwest;fontSize=12;fontColor=#4D4D4D;" parent="km4sKIVRrVkiaHiUSIHk-13" vertex="1">
          <mxGeometry y="78" width="160" height="26" as="geometry" />
        </mxCell>
        <mxCell id="km4sKIVRrVkiaHiUSIHk-58" style="edgeStyle=none;rounded=0;orthogonalLoop=1;jettySize=auto;html=1;exitX=-0.006;exitY=0.033;exitDx=0;exitDy=0;endArrow=diamond;endFill=1;endSize=20;strokeColor=#000000;exitPerimeter=0;" parent="1" source="km4sKIVRrVkiaHiUSIHk-19" target="km4sKIVRrVkiaHiUSIHk-25" edge="1">
          <mxGeometry relative="1" as="geometry" />
        </mxCell>
        <mxCell id="km4sKIVRrVkiaHiUSIHk-76" style="edgeStyle=none;rounded=0;orthogonalLoop=1;jettySize=auto;html=1;exitX=0.5;exitY=0;exitDx=0;exitDy=0;endArrow=diamond;endFill=1;endSize=20;strokeColor=#000000;fontSize=14;" parent="1" source="km4sKIVRrVkiaHiUSIHk-17" target="km4sKIVRrVkiaHiUSIHk-33" edge="1">
          <mxGeometry relative="1" as="geometry" />
        </mxCell>
        <mxCell id="km4sKIVRrVkiaHiUSIHk-77" style="edgeStyle=none;rounded=0;orthogonalLoop=1;jettySize=auto;html=1;exitX=0;exitY=0;exitDx=0;exitDy=0;endArrow=diamond;endFill=1;endSize=20;strokeColor=#000000;fontSize=14;" parent="1" source="km4sKIVRrVkiaHiUSIHk-17" target="km4sKIVRrVkiaHiUSIHk-21" edge="1">
          <mxGeometry relative="1" as="geometry" />
        </mxCell>
        <mxCell id="km4sKIVRrVkiaHiUSIHk-17" value="Note line" style="swimlane;fontStyle=0;childLayout=stackLayout;horizontal=1;startSize=26;fillColor=#d5e8d4;horizontalStack=0;resizeParent=1;resizeParentMax=0;resizeLast=0;collapsible=1;marginBottom=0;swimlaneFillColor=#ffffff;align=center;fontSize=14;rounded=0;strokeColor=#82b366;fontColor=#4D4D4D;" parent="1" vertex="1">
          <mxGeometry x="840" y="304" width="160" height="104" as="geometry">
            <mxRectangle x="260" y="110" width="60" height="26" as="alternateBounds" />
          </mxGeometry>
        </mxCell>
        <mxCell id="km4sKIVRrVkiaHiUSIHk-18" value="- Atributos" style="text;strokeColor=#d6b656;fillColor=#fff2cc;spacingLeft=4;spacingRight=4;overflow=hidden;rotatable=0;points=[[0,0.5],[1,0.5]];portConstraint=eastwest;fontSize=12;rounded=1;fontColor=#4D4D4D;" parent="km4sKIVRrVkiaHiUSIHk-17" vertex="1">
          <mxGeometry y="26" width="160" height="26" as="geometry" />
        </mxCell>
        <mxCell id="km4sKIVRrVkiaHiUSIHk-19" value="+ getters()" style="text;strokeColor=none;fillColor=none;spacingLeft=4;spacingRight=4;overflow=hidden;rotatable=0;points=[[0,0.5],[1,0.5]];portConstraint=eastwest;fontSize=12;absoluteArcSize=0;fontColor=#4D4D4D;" parent="km4sKIVRrVkiaHiUSIHk-17" vertex="1">
          <mxGeometry y="52" width="160" height="26" as="geometry" />
        </mxCell>
        <mxCell id="km4sKIVRrVkiaHiUSIHk-20" value="+ setters()" style="text;strokeColor=none;fillColor=none;spacingLeft=4;spacingRight=4;overflow=hidden;rotatable=0;points=[[0,0.5],[1,0.5]];portConstraint=eastwest;fontSize=12;fontColor=#4D4D4D;" parent="km4sKIVRrVkiaHiUSIHk-17" vertex="1">
          <mxGeometry y="78" width="160" height="26" as="geometry" />
        </mxCell>
        <mxCell id="km4sKIVRrVkiaHiUSIHk-54" style="rounded=0;orthogonalLoop=1;jettySize=auto;html=1;exitX=0;exitY=0.5;exitDx=0;exitDy=0;entryX=1;entryY=0;entryDx=0;entryDy=0;endArrow=diamond;endFill=1;endSize=20;strokeColor=#000000;" parent="1" source="km4sKIVRrVkiaHiUSIHk-24" target="km4sKIVRrVkiaHiUSIHk-5" edge="1">
          <mxGeometry relative="1" as="geometry" />
        </mxCell>
        <mxCell id="km4sKIVRrVkiaHiUSIHk-21" value="Product" style="swimlane;fontStyle=0;childLayout=stackLayout;horizontal=1;startSize=26;fillColor=#d5e8d4;horizontalStack=0;resizeParent=1;resizeParentMax=0;resizeLast=0;collapsible=1;marginBottom=0;swimlaneFillColor=#ffffff;align=center;fontSize=14;rounded=0;strokeColor=#82b366;fontColor=#666666;" parent="1" vertex="1">
          <mxGeometry x="520" y="80" width="160" height="104" as="geometry">
            <mxRectangle x="260" y="110" width="60" height="26" as="alternateBounds" />
          </mxGeometry>
        </mxCell>
        <mxCell id="km4sKIVRrVkiaHiUSIHk-22" value="- Atributos" style="text;strokeColor=#d6b656;fillColor=#fff2cc;spacingLeft=4;spacingRight=4;overflow=hidden;rotatable=0;points=[[0,0.5],[1,0.5]];portConstraint=eastwest;fontSize=12;rounded=1;fontColor=#4D4D4D;" parent="km4sKIVRrVkiaHiUSIHk-21" vertex="1">
          <mxGeometry y="26" width="160" height="26" as="geometry" />
        </mxCell>
        <mxCell id="km4sKIVRrVkiaHiUSIHk-23" value="+ getters()" style="text;strokeColor=none;fillColor=none;spacingLeft=4;spacingRight=4;overflow=hidden;rotatable=0;points=[[0,0.5],[1,0.5]];portConstraint=eastwest;fontSize=12;absoluteArcSize=0;fontColor=#4D4D4D;" parent="km4sKIVRrVkiaHiUSIHk-21" vertex="1">
          <mxGeometry y="52" width="160" height="26" as="geometry" />
        </mxCell>
        <mxCell id="km4sKIVRrVkiaHiUSIHk-24" value="+ setters()" style="text;strokeColor=none;fillColor=none;spacingLeft=4;spacingRight=4;overflow=hidden;rotatable=0;points=[[0,0.5],[1,0.5]];portConstraint=eastwest;fontSize=12;fontColor=#4D4D4D;" parent="km4sKIVRrVkiaHiUSIHk-21" vertex="1">
          <mxGeometry y="78" width="160" height="26" as="geometry" />
        </mxCell>
        <mxCell id="km4sKIVRrVkiaHiUSIHk-53" style="edgeStyle=orthogonalEdgeStyle;rounded=0;orthogonalLoop=1;jettySize=auto;html=1;exitX=0;exitY=0.5;exitDx=0;exitDy=0;endArrow=diamond;endFill=1;endSize=20;strokeColor=#000000;" parent="1" source="km4sKIVRrVkiaHiUSIHk-25" target="km4sKIVRrVkiaHiUSIHk-5" edge="1">
          <mxGeometry relative="1" as="geometry" />
        </mxCell>
        <mxCell id="km4sKIVRrVkiaHiUSIHk-71" style="edgeStyle=none;rounded=0;orthogonalLoop=1;jettySize=auto;html=1;exitX=0.5;exitY=0;exitDx=0;exitDy=0;entryX=0.5;entryY=0;entryDx=0;entryDy=0;endArrow=diamond;endFill=1;endSize=20;strokeColor=#000000;fontSize=14;" parent="1" source="km4sKIVRrVkiaHiUSIHk-25" target="km4sKIVRrVkiaHiUSIHk-13" edge="1">
          <mxGeometry relative="1" as="geometry" />
        </mxCell>
        <mxCell id="km4sKIVRrVkiaHiUSIHk-82" style="edgeStyle=none;rounded=0;orthogonalLoop=1;jettySize=auto;html=1;exitX=0;exitY=0;exitDx=0;exitDy=0;endArrow=diamond;endFill=1;endSize=20;strokeColor=#000000;fontSize=14;" parent="1" source="km4sKIVRrVkiaHiUSIHk-25" target="km4sKIVRrVkiaHiUSIHk-37" edge="1">
          <mxGeometry relative="1" as="geometry" />
        </mxCell>
        <mxCell id="km4sKIVRrVkiaHiUSIHk-25" value="Note" style="swimlane;fontStyle=0;childLayout=stackLayout;horizontal=1;startSize=26;fillColor=#d5e8d4;horizontalStack=0;resizeParent=1;resizeParentMax=0;resizeLast=0;collapsible=1;marginBottom=0;swimlaneFillColor=#ffffff;align=center;fontSize=14;rounded=0;strokeColor=#82b366;fontColor=#4D4D4D;" parent="1" vertex="1">
          <mxGeometry x="520" y="304" width="160" height="104" as="geometry">
            <mxRectangle x="260" y="110" width="60" height="26" as="alternateBounds" />
          </mxGeometry>
        </mxCell>
        <mxCell id="km4sKIVRrVkiaHiUSIHk-26" value="- Atributos" style="text;strokeColor=#d6b656;fillColor=#fff2cc;spacingLeft=4;spacingRight=4;overflow=hidden;rotatable=0;points=[[0,0.5],[1,0.5]];portConstraint=eastwest;fontSize=12;rounded=1;fontColor=#4D4D4D;" parent="km4sKIVRrVkiaHiUSIHk-25" vertex="1">
          <mxGeometry y="26" width="160" height="26" as="geometry" />
        </mxCell>
        <mxCell id="km4sKIVRrVkiaHiUSIHk-27" value="+ getters()" style="text;strokeColor=none;fillColor=none;spacingLeft=4;spacingRight=4;overflow=hidden;rotatable=0;points=[[0,0.5],[1,0.5]];portConstraint=eastwest;fontSize=12;absoluteArcSize=0;fontColor=#4D4D4D;" parent="km4sKIVRrVkiaHiUSIHk-25" vertex="1">
          <mxGeometry y="52" width="160" height="26" as="geometry" />
        </mxCell>
        <mxCell id="km4sKIVRrVkiaHiUSIHk-28" value="+ setters()" style="text;strokeColor=none;fillColor=none;spacingLeft=4;spacingRight=4;overflow=hidden;rotatable=0;points=[[0,0.5],[1,0.5]];portConstraint=eastwest;fontSize=12;fontColor=#4D4D4D;" parent="km4sKIVRrVkiaHiUSIHk-25" vertex="1">
          <mxGeometry y="78" width="160" height="26" as="geometry" />
        </mxCell>
        <mxCell id="km4sKIVRrVkiaHiUSIHk-52" style="edgeStyle=orthogonalEdgeStyle;rounded=0;orthogonalLoop=1;jettySize=auto;html=1;entryX=0.5;entryY=0;entryDx=0;entryDy=0;endArrow=diamond;endFill=1;endSize=20;strokeColor=#000000;" parent="1" source="km4sKIVRrVkiaHiUSIHk-29" target="km4sKIVRrVkiaHiUSIHk-5" edge="1">
          <mxGeometry relative="1" as="geometry" />
        </mxCell>
        <mxCell id="km4sKIVRrVkiaHiUSIHk-29" value="Category" style="swimlane;fontStyle=0;childLayout=stackLayout;horizontal=1;startSize=26;fillColor=#d5e8d4;horizontalStack=0;resizeParent=1;resizeParentMax=0;resizeLast=0;collapsible=1;marginBottom=0;swimlaneFillColor=#ffffff;align=center;fontSize=14;rounded=0;strokeColor=#82b366;swimlaneLine=1;glass=0;shadow=0;comic=0;strokeWidth=2;fontColor=#030303;" parent="1" vertex="1">
          <mxGeometry x="160" y="80" width="160" height="104" as="geometry">
            <mxRectangle x="260" y="110" width="60" height="26" as="alternateBounds" />
          </mxGeometry>
        </mxCell>
        <mxCell id="km4sKIVRrVkiaHiUSIHk-30" value="- Atributos" style="text;strokeColor=#d6b656;fillColor=#fff2cc;spacingLeft=4;spacingRight=4;overflow=hidden;rotatable=0;points=[[0,0.5],[1,0.5]];portConstraint=eastwest;fontSize=12;rounded=1;fontColor=#4D4D4D;" parent="km4sKIVRrVkiaHiUSIHk-29" vertex="1">
          <mxGeometry y="26" width="160" height="26" as="geometry" />
        </mxCell>
        <mxCell id="km4sKIVRrVkiaHiUSIHk-31" value="+ getters()" style="text;strokeColor=none;fillColor=none;spacingLeft=4;spacingRight=4;overflow=hidden;rotatable=0;points=[[0,0.5],[1,0.5]];portConstraint=eastwest;fontSize=12;absoluteArcSize=0;fontColor=#4D4D4D;" parent="km4sKIVRrVkiaHiUSIHk-29" vertex="1">
          <mxGeometry y="52" width="160" height="26" as="geometry" />
        </mxCell>
        <mxCell id="km4sKIVRrVkiaHiUSIHk-32" value="+ setters()" style="text;strokeColor=none;fillColor=none;spacingLeft=4;spacingRight=4;overflow=hidden;rotatable=0;points=[[0,0.5],[1,0.5]];portConstraint=eastwest;fontSize=12;fontColor=#4D4D4D;" parent="km4sKIVRrVkiaHiUSIHk-29" vertex="1">
          <mxGeometry y="78" width="160" height="26" as="geometry" />
        </mxCell>
        <mxCell id="km4sKIVRrVkiaHiUSIHk-33" value="Comment" style="swimlane;fontStyle=0;childLayout=stackLayout;horizontal=1;startSize=26;fillColor=#d5e8d4;horizontalStack=0;resizeParent=1;resizeParentMax=0;resizeLast=0;collapsible=1;marginBottom=0;swimlaneFillColor=#ffffff;align=center;fontSize=14;rounded=0;strokeColor=#82b366;fontColor=#4D4D4D;" parent="1" vertex="1">
          <mxGeometry x="840" y="80" width="160" height="104" as="geometry">
            <mxRectangle x="260" y="110" width="60" height="26" as="alternateBounds" />
          </mxGeometry>
        </mxCell>
        <mxCell id="km4sKIVRrVkiaHiUSIHk-34" value="- Atributos" style="text;strokeColor=#d6b656;fillColor=#fff2cc;spacingLeft=4;spacingRight=4;overflow=hidden;rotatable=0;points=[[0,0.5],[1,0.5]];portConstraint=eastwest;fontSize=12;rounded=1;fontColor=#4D4D4D;" parent="km4sKIVRrVkiaHiUSIHk-33" vertex="1">
          <mxGeometry y="26" width="160" height="26" as="geometry" />
        </mxCell>
        <mxCell id="km4sKIVRrVkiaHiUSIHk-35" value="+ getters()" style="text;strokeColor=none;fillColor=none;spacingLeft=4;spacingRight=4;overflow=hidden;rotatable=0;points=[[0,0.5],[1,0.5]];portConstraint=eastwest;fontSize=12;absoluteArcSize=0;fontColor=#4D4D4D;" parent="km4sKIVRrVkiaHiUSIHk-33" vertex="1">
          <mxGeometry y="52" width="160" height="26" as="geometry" />
        </mxCell>
        <mxCell id="km4sKIVRrVkiaHiUSIHk-36" value="+ setters()" style="text;strokeColor=none;fillColor=none;spacingLeft=4;spacingRight=4;overflow=hidden;rotatable=0;points=[[0,0.5],[1,0.5]];portConstraint=eastwest;fontSize=12;fontColor=#4D4D4D;" parent="km4sKIVRrVkiaHiUSIHk-33" vertex="1">
          <mxGeometry y="78" width="160" height="26" as="geometry" />
        </mxCell>
        <mxCell id="km4sKIVRrVkiaHiUSIHk-37" value="Invoice" style="swimlane;fontStyle=0;childLayout=stackLayout;horizontal=1;startSize=26;fillColor=#d5e8d4;horizontalStack=0;resizeParent=1;resizeParentMax=0;resizeLast=0;collapsible=1;marginBottom=0;swimlaneFillColor=#ffffff;align=center;fontSize=14;rounded=0;strokeColor=#82b366;fontColor=#4D4D4D;" parent="1" vertex="1">
          <mxGeometry x="840" y="520" width="160" height="104" as="geometry">
            <mxRectangle x="260" y="110" width="60" height="26" as="alternateBounds" />
          </mxGeometry>
        </mxCell>
        <mxCell id="km4sKIVRrVkiaHiUSIHk-38" value="- Atributos" style="text;strokeColor=#d6b656;fillColor=#fff2cc;spacingLeft=4;spacingRight=4;overflow=hidden;rotatable=0;points=[[0,0.5],[1,0.5]];portConstraint=eastwest;fontSize=12;rounded=1;fontColor=#4D4D4D;" parent="km4sKIVRrVkiaHiUSIHk-37" vertex="1">
          <mxGeometry y="26" width="160" height="26" as="geometry" />
        </mxCell>
        <mxCell id="km4sKIVRrVkiaHiUSIHk-39" value="+ getters()" style="text;strokeColor=none;fillColor=none;spacingLeft=4;spacingRight=4;overflow=hidden;rotatable=0;points=[[0,0.5],[1,0.5]];portConstraint=eastwest;fontSize=12;absoluteArcSize=0;fontColor=#4D4D4D;" parent="km4sKIVRrVkiaHiUSIHk-37" vertex="1">
          <mxGeometry y="52" width="160" height="26" as="geometry" />
        </mxCell>
        <mxCell id="km4sKIVRrVkiaHiUSIHk-40" value="+ setters()" style="text;strokeColor=none;fillColor=none;spacingLeft=4;spacingRight=4;overflow=hidden;rotatable=0;points=[[0,0.5],[1,0.5]];portConstraint=eastwest;fontSize=12;fontColor=#4D4D4D;" parent="km4sKIVRrVkiaHiUSIHk-37" vertex="1">
          <mxGeometry y="78" width="160" height="26" as="geometry" />
        </mxCell>
        <mxCell id="km4sKIVRrVkiaHiUSIHk-62" value="1" style="text;html=1;align=left;verticalAlign=middle;resizable=0;points=[];;autosize=1;fontSize=14;" parent="1" vertex="1">
          <mxGeometry x="250" y="260" width="20" height="20" as="geometry" />
        </mxCell>
        <mxCell id="km4sKIVRrVkiaHiUSIHk-63" value="1..*" style="text;html=1;align=left;verticalAlign=middle;resizable=0;points=[];;autosize=1;fontSize=14;" parent="1" vertex="1">
          <mxGeometry x="250" y="190" width="40" height="20" as="geometry" />
        </mxCell>
        <mxCell id="km4sKIVRrVkiaHiUSIHk-64" value="1" style="text;html=1;align=right;verticalAlign=middle;resizable=0;points=[];;autosize=1;fontSize=14;" parent="1" vertex="1">
          <mxGeometry x="330" y="260" width="20" height="20" as="geometry" />
        </mxCell>
        <mxCell id="km4sKIVRrVkiaHiUSIHk-65" value="1..*" style="text;html=1;align=right;verticalAlign=middle;resizable=0;points=[];;autosize=1;fontSize=14;" parent="1" vertex="1">
          <mxGeometry x="470" y="160" width="40" height="20" as="geometry" />
        </mxCell>
        <mxCell id="km4sKIVRrVkiaHiUSIHk-66" value="1" style="text;html=1;align=center;verticalAlign=middle;resizable=0;points=[];;autosize=1;fontSize=14;" parent="1" vertex="1">
          <mxGeometry x="340" y="330" width="20" height="20" as="geometry" />
        </mxCell>
        <mxCell id="km4sKIVRrVkiaHiUSIHk-67" value="1..*" style="text;html=1;align=right;verticalAlign=middle;resizable=0;points=[];;autosize=1;fontSize=14;" parent="1" vertex="1">
          <mxGeometry x="470" y="330" width="40" height="20" as="geometry" />
        </mxCell>
        <mxCell id="km4sKIVRrVkiaHiUSIHk-68" value="1" style="text;html=1;align=center;verticalAlign=middle;resizable=0;points=[];;autosize=1;fontSize=14;" parent="1" vertex="1">
          <mxGeometry x="340" y="400" width="20" height="20" as="geometry" />
        </mxCell>
        <mxCell id="km4sKIVRrVkiaHiUSIHk-69" value="1..*" style="text;html=1;align=center;verticalAlign=middle;resizable=0;points=[];;autosize=1;fontSize=14;" parent="1" vertex="1">
          <mxGeometry x="480" y="480" width="40" height="20" as="geometry" />
        </mxCell>
        <mxCell id="km4sKIVRrVkiaHiUSIHk-70" value="0..*" style="text;html=1;align=center;verticalAlign=middle;resizable=0;points=[];;autosize=1;fontSize=14;" parent="1" vertex="1">
          <mxGeometry x="564" y="408" width="40" height="20" as="geometry" />
        </mxCell>
        <mxCell id="km4sKIVRrVkiaHiUSIHk-72" value="1" style="text;html=1;align=center;verticalAlign=middle;resizable=0;points=[];;autosize=1;fontSize=14;" parent="1" vertex="1">
          <mxGeometry x="574" y="480" width="20" height="20" as="geometry" />
        </mxCell>
        <mxCell id="km4sKIVRrVkiaHiUSIHk-73" value="1" style="text;html=1;align=center;verticalAlign=middle;resizable=0;points=[];;autosize=1;fontSize=14;" parent="1" vertex="1">
          <mxGeometry x="700" y="330" width="20" height="20" as="geometry" />
        </mxCell>
        <mxCell id="km4sKIVRrVkiaHiUSIHk-74" value="1..*" style="text;html=1;align=center;verticalAlign=middle;resizable=0;points=[];;autosize=1;fontSize=14;" parent="1" vertex="1">
          <mxGeometry x="800" y="330" width="40" height="20" as="geometry" />
        </mxCell>
        <mxCell id="km4sKIVRrVkiaHiUSIHk-78" value="1..*" style="text;html=1;align=center;verticalAlign=middle;resizable=0;points=[];;autosize=1;fontSize=14;" parent="1" vertex="1">
          <mxGeometry x="810" y="260" width="40" height="20" as="geometry" />
        </mxCell>
        <mxCell id="km4sKIVRrVkiaHiUSIHk-79" value="1" style="text;html=1;align=center;verticalAlign=middle;resizable=0;points=[];;autosize=1;fontSize=14;" parent="1" vertex="1">
          <mxGeometry x="700" y="180" width="20" height="20" as="geometry" />
        </mxCell>
        <mxCell id="km4sKIVRrVkiaHiUSIHk-80" value="1" style="text;html=1;align=left;verticalAlign=middle;resizable=0;points=[];;autosize=1;fontSize=14;" parent="1" vertex="1">
          <mxGeometry x="900" y="200" width="20" height="20" as="geometry" />
        </mxCell>
        <mxCell id="km4sKIVRrVkiaHiUSIHk-81" value="1..*" style="text;html=1;align=center;verticalAlign=middle;resizable=0;points=[];;autosize=1;fontSize=14;" parent="1" vertex="1">
          <mxGeometry x="880" y="270" width="40" height="20" as="geometry" />
        </mxCell>
        <mxCell id="km4sKIVRrVkiaHiUSIHk-83" value="1" style="text;html=1;align=center;verticalAlign=middle;resizable=0;points=[];;autosize=1;fontSize=14;" parent="1" vertex="1">
          <mxGeometry x="810" y="480" width="20" height="20" as="geometry" />
        </mxCell>
        <mxCell id="km4sKIVRrVkiaHiUSIHk-84" value="1..*" style="text;html=1;align=center;verticalAlign=middle;resizable=0;points=[];;autosize=1;fontSize=14;" parent="1" vertex="1">
          <mxGeometry x="690" y="403" width="40" height="20" as="geometry" />
        </mxCell>
        <mxCell id="km4sKIVRrVkiaHiUSIHk-85" value="1" style="text;html=1;align=center;verticalAlign=middle;resizable=0;points=[];;autosize=1;fontSize=14;" parent="1" vertex="1">
          <mxGeometry x="240" y="428" width="20" height="20" as="geometry" />
        </mxCell>
        <mxCell id="km4sKIVRrVkiaHiUSIHk-86" value="1" style="text;html=1;align=center;verticalAlign=middle;resizable=0;points=[];;autosize=1;fontSize=14;" parent="1" vertex="1">
          <mxGeometry x="240" y="490" width="20" height="20" as="geometry" />
        </mxCell>
        <mxCell id="km4sKIVRrVkiaHiUSIHk-95" style="edgeStyle=orthogonalEdgeStyle;rounded=0;orthogonalLoop=1;jettySize=auto;html=1;exitX=1;exitY=0.5;exitDx=0;exitDy=0;entryX=0;entryY=0.5;entryDx=0;entryDy=0;endArrow=diamond;endFill=1;endSize=20;strokeColor=#000000;fontSize=14;" parent="1" source="km4sKIVRrVkiaHiUSIHk-31" target="km4sKIVRrVkiaHiUSIHk-23" edge="1">
          <mxGeometry relative="1" as="geometry" />
        </mxCell>
        <mxCell id="km4sKIVRrVkiaHiUSIHk-96" value="1" style="text;html=1;align=left;verticalAlign=middle;resizable=0;points=[];;autosize=1;fontSize=14;" parent="1" vertex="1">
          <mxGeometry x="480" y="122" width="20" height="20" as="geometry" />
        </mxCell>
        <mxCell id="km4sKIVRrVkiaHiUSIHk-97" value="1..*" style="text;html=1;align=right;verticalAlign=middle;resizable=0;points=[];;autosize=1;fontSize=14;" parent="1" vertex="1">
          <mxGeometry x="310" y="122" width="40" height="20" as="geometry" />
        </mxCell>
      </root>
    </mxGraphModel>
  </diagram>
</mxfile>
